<mxfile host="app.diagrams.net" modified="2023-10-30T03:23:01.055Z" agent="Mozilla/5.0 (Windows NT 10.0; Win64; x64) AppleWebKit/537.36 (KHTML, like Gecko) Chrome/95.0.4638.69 Safari/537.36" etag="LfvTf2vyX5PwAzzsmO-S" version="22.0.8" type="github">
  <diagram id="C5RBs43oDa-KdzZeNtuy" name="Page-1">
    <mxGraphModel dx="1230" dy="720" grid="0" gridSize="10" guides="1" tooltips="1" connect="1" arrows="1" fold="1" page="1" pageScale="1" pageWidth="1169" pageHeight="827" math="0" shadow="0">
      <root>
        <mxCell id="WIyWlLk6GJQsqaUBKTNV-0" />
        <mxCell id="WIyWlLk6GJQsqaUBKTNV-1" parent="WIyWlLk6GJQsqaUBKTNV-0" />
        <mxCell id="pLkTnMh8Cj9eFYScthq--2" style="edgeStyle=orthogonalEdgeStyle;rounded=0;orthogonalLoop=1;jettySize=auto;html=1;exitX=1;exitY=0.5;exitDx=0;exitDy=0;entryX=0;entryY=0.5;entryDx=0;entryDy=0;" parent="WIyWlLk6GJQsqaUBKTNV-1" edge="1">
          <mxGeometry relative="1" as="geometry">
            <mxPoint x="611" y="280" as="sourcePoint" />
            <mxPoint x="685" y="280" as="targetPoint" />
          </mxGeometry>
        </mxCell>
        <mxCell id="pLkTnMh8Cj9eFYScthq--3" style="edgeStyle=orthogonalEdgeStyle;rounded=0;orthogonalLoop=1;jettySize=auto;html=1;exitX=1;exitY=0.5;exitDx=0;exitDy=0;entryX=0;entryY=0.5;entryDx=0;entryDy=0;" parent="WIyWlLk6GJQsqaUBKTNV-1" edge="1">
          <mxGeometry relative="1" as="geometry">
            <Array as="points">
              <mxPoint x="651" y="280" />
              <mxPoint x="651" y="215" />
            </Array>
            <mxPoint x="582" y="280" as="sourcePoint" />
            <mxPoint x="688" y="215" as="targetPoint" />
          </mxGeometry>
        </mxCell>
        <mxCell id="pLkTnMh8Cj9eFYScthq--4" style="edgeStyle=orthogonalEdgeStyle;rounded=0;orthogonalLoop=1;jettySize=auto;html=1;exitX=1;exitY=0.5;exitDx=0;exitDy=0;entryX=0;entryY=0.5;entryDx=0;entryDy=0;" parent="WIyWlLk6GJQsqaUBKTNV-1" source="pLkTnMh8Cj9eFYScthq--5" target="pLkTnMh8Cj9eFYScthq--8" edge="1">
          <mxGeometry relative="1" as="geometry">
            <Array as="points">
              <mxPoint x="611" y="280" />
              <mxPoint x="651" y="280" />
              <mxPoint x="651" y="340" />
              <mxPoint x="685" y="340" />
            </Array>
          </mxGeometry>
        </mxCell>
        <mxCell id="bKlepUEIa-SPePNMnjWT-5" style="edgeStyle=orthogonalEdgeStyle;rounded=0;orthogonalLoop=1;jettySize=auto;html=1;exitX=0.5;exitY=1;exitDx=0;exitDy=0;entryX=0.5;entryY=0;entryDx=0;entryDy=0;" edge="1" parent="WIyWlLk6GJQsqaUBKTNV-1" source="pLkTnMh8Cj9eFYScthq--5" target="bKlepUEIa-SPePNMnjWT-4">
          <mxGeometry relative="1" as="geometry" />
        </mxCell>
        <mxCell id="bKlepUEIa-SPePNMnjWT-6" value="定期生成" style="edgeLabel;html=1;align=center;verticalAlign=middle;resizable=0;points=[];" vertex="1" connectable="0" parent="bKlepUEIa-SPePNMnjWT-5">
          <mxGeometry x="-0.1869" relative="1" as="geometry">
            <mxPoint as="offset" />
          </mxGeometry>
        </mxCell>
        <mxCell id="pLkTnMh8Cj9eFYScthq--5" value="危害岗位管理" style="rounded=0;whiteSpace=wrap;html=1;fillColor=#fff2cc;strokeColor=#d6b656;" parent="WIyWlLk6GJQsqaUBKTNV-1" vertex="1">
          <mxGeometry x="461" y="240" width="121" height="80" as="geometry" />
        </mxCell>
        <mxCell id="pLkTnMh8Cj9eFYScthq--6" value="应做的" style="rounded=1;whiteSpace=wrap;html=1;fontSize=12;glass=0;strokeWidth=1;shadow=0;" parent="WIyWlLk6GJQsqaUBKTNV-1" vertex="1">
          <mxGeometry x="688" y="190" width="120" height="40" as="geometry" />
        </mxCell>
        <mxCell id="pLkTnMh8Cj9eFYScthq--7" value="已做的" style="rounded=1;whiteSpace=wrap;html=1;fontSize=12;glass=0;strokeWidth=1;shadow=0;" parent="WIyWlLk6GJQsqaUBKTNV-1" vertex="1">
          <mxGeometry x="688" y="255" width="120" height="40" as="geometry" />
        </mxCell>
        <mxCell id="pLkTnMh8Cj9eFYScthq--8" value="未做的" style="rounded=1;whiteSpace=wrap;html=1;fontSize=12;glass=0;strokeWidth=1;shadow=0;" parent="WIyWlLk6GJQsqaUBKTNV-1" vertex="1">
          <mxGeometry x="689" y="320" width="120" height="40" as="geometry" />
        </mxCell>
        <mxCell id="bKlepUEIa-SPePNMnjWT-8" style="edgeStyle=orthogonalEdgeStyle;rounded=0;orthogonalLoop=1;jettySize=auto;html=1;exitX=0.5;exitY=1;exitDx=0;exitDy=0;entryX=0.5;entryY=0;entryDx=0;entryDy=0;" edge="1" parent="WIyWlLk6GJQsqaUBKTNV-1" source="bKlepUEIa-SPePNMnjWT-2" target="pLkTnMh8Cj9eFYScthq--5">
          <mxGeometry relative="1" as="geometry" />
        </mxCell>
        <mxCell id="bKlepUEIa-SPePNMnjWT-2" value="危害岗位变动" style="rounded=0;whiteSpace=wrap;html=1;fillColor=#ffe6cc;strokeColor=#d79b00;" vertex="1" parent="WIyWlLk6GJQsqaUBKTNV-1">
          <mxGeometry x="462" y="150" width="120" height="50" as="geometry" />
        </mxCell>
        <mxCell id="bKlepUEIa-SPePNMnjWT-34" style="edgeStyle=orthogonalEdgeStyle;rounded=0;orthogonalLoop=1;jettySize=auto;html=1;exitX=0.5;exitY=1;exitDx=0;exitDy=0;entryX=0.5;entryY=0;entryDx=0;entryDy=0;" edge="1" parent="WIyWlLk6GJQsqaUBKTNV-1" source="bKlepUEIa-SPePNMnjWT-4" target="bKlepUEIa-SPePNMnjWT-33">
          <mxGeometry relative="1" as="geometry" />
        </mxCell>
        <mxCell id="bKlepUEIa-SPePNMnjWT-4" value="危害岗位提醒单" style="rounded=0;whiteSpace=wrap;html=1;fillColor=#dae8fc;strokeColor=#6c8ebf;" vertex="1" parent="WIyWlLk6GJQsqaUBKTNV-1">
          <mxGeometry x="462" y="350" width="120" height="60" as="geometry" />
        </mxCell>
        <mxCell id="bKlepUEIa-SPePNMnjWT-36" style="edgeStyle=orthogonalEdgeStyle;rounded=0;orthogonalLoop=1;jettySize=auto;html=1;exitX=0.5;exitY=1;exitDx=0;exitDy=0;entryX=0.5;entryY=0;entryDx=0;entryDy=0;" edge="1" parent="WIyWlLk6GJQsqaUBKTNV-1" source="bKlepUEIa-SPePNMnjWT-11" target="bKlepUEIa-SPePNMnjWT-15">
          <mxGeometry relative="1" as="geometry" />
        </mxCell>
        <mxCell id="bKlepUEIa-SPePNMnjWT-38" style="edgeStyle=orthogonalEdgeStyle;rounded=0;orthogonalLoop=1;jettySize=auto;html=1;exitX=1;exitY=0.5;exitDx=0;exitDy=0;dashed=1;" edge="1" parent="WIyWlLk6GJQsqaUBKTNV-1" source="bKlepUEIa-SPePNMnjWT-11">
          <mxGeometry relative="1" as="geometry">
            <mxPoint x="632" y="510" as="targetPoint" />
          </mxGeometry>
        </mxCell>
        <mxCell id="bKlepUEIa-SPePNMnjWT-11" value="人事专员" style="rounded=0;whiteSpace=wrap;html=1;" vertex="1" parent="WIyWlLk6GJQsqaUBKTNV-1">
          <mxGeometry x="462" y="490" width="120" height="40" as="geometry" />
        </mxCell>
        <mxCell id="bKlepUEIa-SPePNMnjWT-24" style="edgeStyle=orthogonalEdgeStyle;rounded=0;orthogonalLoop=1;jettySize=auto;html=1;exitX=0.5;exitY=1;exitDx=0;exitDy=0;entryX=0.5;entryY=0;entryDx=0;entryDy=0;" edge="1" parent="WIyWlLk6GJQsqaUBKTNV-1" source="bKlepUEIa-SPePNMnjWT-14" target="bKlepUEIa-SPePNMnjWT-23">
          <mxGeometry relative="1" as="geometry" />
        </mxCell>
        <mxCell id="bKlepUEIa-SPePNMnjWT-14" value="EHS复核" style="rounded=0;whiteSpace=wrap;html=1;" vertex="1" parent="WIyWlLk6GJQsqaUBKTNV-1">
          <mxGeometry x="461.5" y="650" width="120" height="40" as="geometry" />
        </mxCell>
        <mxCell id="bKlepUEIa-SPePNMnjWT-18" style="edgeStyle=orthogonalEdgeStyle;rounded=0;orthogonalLoop=1;jettySize=auto;html=1;exitX=0;exitY=0.5;exitDx=0;exitDy=0;entryX=0;entryY=0.5;entryDx=0;entryDy=0;" edge="1" parent="WIyWlLk6GJQsqaUBKTNV-1" source="bKlepUEIa-SPePNMnjWT-15" target="pLkTnMh8Cj9eFYScthq--5">
          <mxGeometry relative="1" as="geometry">
            <mxPoint x="461" y="200" as="targetPoint" />
            <Array as="points">
              <mxPoint x="382" y="585" />
              <mxPoint x="382" y="280" />
            </Array>
          </mxGeometry>
        </mxCell>
        <mxCell id="bKlepUEIa-SPePNMnjWT-19" value="合格" style="edgeLabel;html=1;align=center;verticalAlign=middle;resizable=0;points=[];" vertex="1" connectable="0" parent="bKlepUEIa-SPePNMnjWT-18">
          <mxGeometry x="-0.8049" y="-1" relative="1" as="geometry">
            <mxPoint as="offset" />
          </mxGeometry>
        </mxCell>
        <mxCell id="bKlepUEIa-SPePNMnjWT-20" value="流程结束" style="edgeLabel;html=1;align=center;verticalAlign=middle;resizable=0;points=[];" vertex="1" connectable="0" parent="bKlepUEIa-SPePNMnjWT-18">
          <mxGeometry x="0.1664" y="2" relative="1" as="geometry">
            <mxPoint as="offset" />
          </mxGeometry>
        </mxCell>
        <mxCell id="bKlepUEIa-SPePNMnjWT-21" style="edgeStyle=orthogonalEdgeStyle;rounded=0;orthogonalLoop=1;jettySize=auto;html=1;exitX=0.5;exitY=1;exitDx=0;exitDy=0;entryX=0.5;entryY=0;entryDx=0;entryDy=0;" edge="1" parent="WIyWlLk6GJQsqaUBKTNV-1" source="bKlepUEIa-SPePNMnjWT-15" target="bKlepUEIa-SPePNMnjWT-14">
          <mxGeometry relative="1" as="geometry" />
        </mxCell>
        <mxCell id="bKlepUEIa-SPePNMnjWT-22" value="不合格" style="edgeLabel;html=1;align=center;verticalAlign=middle;resizable=0;points=[];" vertex="1" connectable="0" parent="bKlepUEIa-SPePNMnjWT-21">
          <mxGeometry x="-0.2601" relative="1" as="geometry">
            <mxPoint as="offset" />
          </mxGeometry>
        </mxCell>
        <mxCell id="bKlepUEIa-SPePNMnjWT-15" value="体检结果" style="rhombus;whiteSpace=wrap;html=1;" vertex="1" parent="WIyWlLk6GJQsqaUBKTNV-1">
          <mxGeometry x="481.5" y="544.5" width="80" height="80" as="geometry" />
        </mxCell>
        <mxCell id="bKlepUEIa-SPePNMnjWT-25" style="edgeStyle=orthogonalEdgeStyle;rounded=0;orthogonalLoop=1;jettySize=auto;html=1;exitX=1;exitY=0.5;exitDx=0;exitDy=0;entryX=1;entryY=0.5;entryDx=0;entryDy=0;" edge="1" parent="WIyWlLk6GJQsqaUBKTNV-1" source="bKlepUEIa-SPePNMnjWT-23" target="bKlepUEIa-SPePNMnjWT-15">
          <mxGeometry relative="1" as="geometry">
            <mxPoint x="562" y="790" as="sourcePoint" />
            <Array as="points">
              <mxPoint x="662" y="750" />
              <mxPoint x="662" y="585" />
            </Array>
          </mxGeometry>
        </mxCell>
        <mxCell id="bKlepUEIa-SPePNMnjWT-26" value="复查" style="edgeLabel;html=1;align=center;verticalAlign=middle;resizable=0;points=[];" vertex="1" connectable="0" parent="bKlepUEIa-SPePNMnjWT-25">
          <mxGeometry x="0.0713" y="1" relative="1" as="geometry">
            <mxPoint x="-49" y="96" as="offset" />
          </mxGeometry>
        </mxCell>
        <mxCell id="bKlepUEIa-SPePNMnjWT-29" style="edgeStyle=orthogonalEdgeStyle;rounded=0;orthogonalLoop=1;jettySize=auto;html=1;exitX=0;exitY=0.5;exitDx=0;exitDy=0;entryX=1;entryY=0.5;entryDx=0;entryDy=0;" edge="1" parent="WIyWlLk6GJQsqaUBKTNV-1" source="bKlepUEIa-SPePNMnjWT-23" target="bKlepUEIa-SPePNMnjWT-28">
          <mxGeometry relative="1" as="geometry" />
        </mxCell>
        <mxCell id="bKlepUEIa-SPePNMnjWT-30" value="调岗" style="edgeLabel;html=1;align=center;verticalAlign=middle;resizable=0;points=[];" vertex="1" connectable="0" parent="bKlepUEIa-SPePNMnjWT-29">
          <mxGeometry x="-0.1493" y="1" relative="1" as="geometry">
            <mxPoint as="offset" />
          </mxGeometry>
        </mxCell>
        <mxCell id="bKlepUEIa-SPePNMnjWT-23" value="解决状态" style="rhombus;whiteSpace=wrap;html=1;" vertex="1" parent="WIyWlLk6GJQsqaUBKTNV-1">
          <mxGeometry x="482" y="710" width="80" height="80" as="geometry" />
        </mxCell>
        <mxCell id="bKlepUEIa-SPePNMnjWT-31" style="edgeStyle=orthogonalEdgeStyle;rounded=0;orthogonalLoop=1;jettySize=auto;html=1;exitX=0;exitY=0.5;exitDx=0;exitDy=0;" edge="1" parent="WIyWlLk6GJQsqaUBKTNV-1" source="bKlepUEIa-SPePNMnjWT-28">
          <mxGeometry relative="1" as="geometry">
            <mxPoint x="462" y="280" as="targetPoint" />
            <Array as="points">
              <mxPoint x="262" y="750" />
              <mxPoint x="262" y="280" />
            </Array>
          </mxGeometry>
        </mxCell>
        <mxCell id="bKlepUEIa-SPePNMnjWT-32" value="流程结束" style="edgeLabel;html=1;align=center;verticalAlign=middle;resizable=0;points=[];" vertex="1" connectable="0" parent="bKlepUEIa-SPePNMnjWT-31">
          <mxGeometry x="0.1314" y="-1" relative="1" as="geometry">
            <mxPoint as="offset" />
          </mxGeometry>
        </mxCell>
        <mxCell id="bKlepUEIa-SPePNMnjWT-39" value="更新" style="edgeLabel;html=1;align=center;verticalAlign=middle;resizable=0;points=[];" vertex="1" connectable="0" parent="bKlepUEIa-SPePNMnjWT-31">
          <mxGeometry x="0.8724" y="1" relative="1" as="geometry">
            <mxPoint as="offset" />
          </mxGeometry>
        </mxCell>
        <mxCell id="bKlepUEIa-SPePNMnjWT-28" value="部门长" style="rounded=0;whiteSpace=wrap;html=1;" vertex="1" parent="WIyWlLk6GJQsqaUBKTNV-1">
          <mxGeometry x="282" y="730" width="120" height="40" as="geometry" />
        </mxCell>
        <mxCell id="bKlepUEIa-SPePNMnjWT-35" style="edgeStyle=orthogonalEdgeStyle;rounded=0;orthogonalLoop=1;jettySize=auto;html=1;exitX=0.5;exitY=1;exitDx=0;exitDy=0;entryX=0.5;entryY=0;entryDx=0;entryDy=0;" edge="1" parent="WIyWlLk6GJQsqaUBKTNV-1" source="bKlepUEIa-SPePNMnjWT-33" target="bKlepUEIa-SPePNMnjWT-11">
          <mxGeometry relative="1" as="geometry" />
        </mxCell>
        <mxCell id="bKlepUEIa-SPePNMnjWT-33" value="EHS审核" style="rounded=0;whiteSpace=wrap;html=1;" vertex="1" parent="WIyWlLk6GJQsqaUBKTNV-1">
          <mxGeometry x="461.5" y="430" width="120" height="40" as="geometry" />
        </mxCell>
        <mxCell id="bKlepUEIa-SPePNMnjWT-37" value="上传体检报告" style="shape=document;whiteSpace=wrap;html=1;boundedLbl=1;" vertex="1" parent="WIyWlLk6GJQsqaUBKTNV-1">
          <mxGeometry x="636" y="484.5" width="116" height="60" as="geometry" />
        </mxCell>
      </root>
    </mxGraphModel>
  </diagram>
</mxfile>
